<svg width="41" height="40" viewBox="0 0 41 40" fill="none" xmlns="http://www.w3.org/2000/svg">
<path fill-rule="evenodd" clip-rule="evenodd" d="M6.44238 9.98297C6.44238 8.9239 6.8631 7.90821 7.61197 7.15933C8.36084 6.41046 9.37654 5.98975 10.4356 5.98975H30.4017C31.4608 5.98975 32.4765 6.41046 33.2253 7.15933C33.9742 7.90821 34.3949 8.9239 34.3949 9.98297V25.9558C34.3949 27.0149 33.9742 28.0306 33.2253 28.7795C32.4765 29.5284 31.4608 29.9491 30.4017 29.9491H25.9692L26.2148 30.9254L27.8201 32.5307C28.0992 32.8099 28.2893 33.1656 28.3663 33.5529C28.4433 33.9401 28.4038 34.3415 28.2527 34.7063C28.1016 35.0711 27.8458 35.3829 27.5175 35.6023C27.1893 35.8217 26.8033 35.9388 26.4085 35.9389H14.4288C14.034 35.9388 13.6481 35.8217 13.3198 35.6023C12.9915 35.3829 12.7357 35.0711 12.5846 34.7063C12.4335 34.3415 12.394 33.9401 12.471 33.5529C12.548 33.1656 12.7381 32.8099 13.0172 32.5307L14.6225 30.9254L14.8681 29.9491H10.4356C9.37654 29.9491 8.36084 29.5284 7.61197 28.7795C6.8631 28.0306 6.44238 27.0149 6.44238 25.9558V9.98297ZM17.9648 23.9592H10.4356V9.98297H30.4017V23.9592H17.9648Z" fill="white"/>
</svg>
