<svg width="20" height="20" viewBox="0 0 20 20" fill="none" xmlns="http://www.w3.org/2000/svg">
<path d="M14.1667 1.6665C13.7083 1.6665 13.3333 2.0415 13.3333 2.49984V3.33317H6.66667V2.49984C6.66667 2.0415 6.29167 1.6665 5.83333 1.6665C5.375 1.6665 5 2.0415 5 2.49984V3.33317H4.16667C3.24167 3.33317 2.50833 4.08317 2.50833 4.99984L2.5 16.6665C2.5 17.1085 2.67559 17.5325 2.98816 17.845C3.30072 18.1576 3.72464 18.3332 4.16667 18.3332H15.8333C16.75 18.3332 17.5 17.5832 17.5 16.6665V4.99984C17.5 4.08317 16.75 3.33317 15.8333 3.33317H15V2.49984C15 2.0415 14.625 1.6665 14.1667 1.6665ZM15.8333 16.6665H4.16667V8.33317H15.8333V16.6665ZM9.16667 10.8332C9.16667 10.3748 9.54167 9.99984 10 9.99984C10.4583 9.99984 10.8333 10.3748 10.8333 10.8332C10.8333 11.2915 10.4583 11.6665 10 11.6665C9.54167 11.6665 9.16667 11.2915 9.16667 10.8332ZM5.83333 10.8332C5.83333 10.3748 6.20833 9.99984 6.66667 9.99984C7.125 9.99984 7.5 10.3748 7.5 10.8332C7.5 11.2915 7.125 11.6665 6.66667 11.6665C6.20833 11.6665 5.83333 11.2915 5.83333 10.8332ZM12.5 10.8332C12.5 10.3748 12.875 9.99984 13.3333 9.99984C13.7917 9.99984 14.1667 10.3748 14.1667 10.8332C14.1667 11.2915 13.7917 11.6665 13.3333 11.6665C12.875 11.6665 12.5 11.2915 12.5 10.8332ZM9.16667 14.1665C9.16667 13.7082 9.54167 13.3332 10 13.3332C10.4583 13.3332 10.8333 13.7082 10.8333 14.1665C10.8333 14.6248 10.4583 14.9998 10 14.9998C9.54167 14.9998 9.16667 14.6248 9.16667 14.1665ZM5.83333 14.1665C5.83333 13.7082 6.20833 13.3332 6.66667 13.3332C7.125 13.3332 7.5 13.7082 7.5 14.1665C7.5 14.6248 7.125 14.9998 6.66667 14.9998C6.20833 14.9998 5.83333 14.6248 5.83333 14.1665ZM12.5 14.1665C12.5 13.7082 12.875 13.3332 13.3333 13.3332C13.7917 13.3332 14.1667 13.7082 14.1667 14.1665C14.1667 14.6248 13.7917 14.9998 13.3333 14.9998C12.875 14.9998 12.5 14.6248 12.5 14.1665Z" fill="#0048BA"/>
</svg>
