<svg width="33" height="32" viewBox="0 0 33 32" fill="none" xmlns="http://www.w3.org/2000/svg">
<path d="M16.6291 1.99658C8.91096 1.99658 2.65283 8.25471 2.65283 15.9729C2.65283 23.691 8.91096 29.9491 16.6291 29.9491C24.3472 29.9491 30.6054 23.691 30.6054 15.9729C30.6054 8.25471 24.3472 1.99658 16.6291 1.99658ZM22.1354 20.2687L21.2431 21.4854C21.2237 21.5119 21.1993 21.5343 21.1712 21.5513C21.1431 21.5683 21.1119 21.5796 21.0795 21.5845C21.047 21.5894 21.0139 21.5879 20.982 21.58C20.9501 21.5721 20.9201 21.5579 20.8937 21.5384L15.7337 17.776C15.7016 17.753 15.6755 17.7225 15.6576 17.6872C15.6396 17.6519 15.6305 17.6128 15.6308 17.5733V8.98472C15.6308 8.84745 15.7431 8.73514 15.8804 8.73514H17.381C17.5182 8.73514 17.6305 8.84745 17.6305 8.98472V16.706L22.0792 19.9224C22.1915 20.0004 22.2165 20.1564 22.1354 20.2687Z" fill="white"/>
</svg>
