<svg width="41" height="40" viewBox="0 0 41 40" fill="none" xmlns="http://www.w3.org/2000/svg">
<path d="M28.847 3.32764C27.9319 3.32764 27.1832 4.07637 27.1832 4.99148V6.65532H13.8724V4.99148C13.8724 4.07637 13.1237 3.32764 12.2086 3.32764C11.2935 3.32764 10.5447 4.07637 10.5447 4.99148V6.65532H8.88091C7.03404 6.65532 5.56986 8.15278 5.56986 9.983L5.55322 33.2768C5.55322 34.1593 5.90382 35.0058 6.52788 35.6298C7.15194 36.2539 7.99835 36.6045 8.88091 36.6045H32.1747C34.0049 36.6045 35.5024 35.107 35.5024 33.2768V9.983C35.5024 8.15278 34.0049 6.65532 32.1747 6.65532H30.5108V4.99148C30.5108 4.07637 29.7621 3.32764 28.847 3.32764ZM32.1747 33.2768H8.88091V16.6384H32.1747V33.2768ZM18.864 21.6299C18.864 20.7148 19.6127 19.9661 20.5278 19.9661C21.4429 19.9661 22.1916 20.7148 22.1916 21.6299C22.1916 22.545 21.4429 23.2937 20.5278 23.2937C19.6127 23.2937 18.864 22.545 18.864 21.6299ZM12.2086 21.6299C12.2086 20.7148 12.9573 19.9661 13.8724 19.9661C14.7875 19.9661 15.5363 20.7148 15.5363 21.6299C15.5363 22.545 14.7875 23.2937 13.8724 23.2937C12.9573 23.2937 12.2086 22.545 12.2086 21.6299ZM25.5193 21.6299C25.5193 20.7148 26.2681 19.9661 27.1832 19.9661C28.0983 19.9661 28.847 20.7148 28.847 21.6299C28.847 22.545 28.0983 23.2937 27.1832 23.2937C26.2681 23.2937 25.5193 22.545 25.5193 21.6299ZM18.864 28.2853C18.864 27.3702 19.6127 26.6214 20.5278 26.6214C21.4429 26.6214 22.1916 27.3702 22.1916 28.2853C22.1916 29.2004 21.4429 29.9491 20.5278 29.9491C19.6127 29.9491 18.864 29.2004 18.864 28.2853ZM12.2086 28.2853C12.2086 27.3702 12.9573 26.6214 13.8724 26.6214C14.7875 26.6214 15.5363 27.3702 15.5363 28.2853C15.5363 29.2004 14.7875 29.9491 13.8724 29.9491C12.9573 29.9491 12.2086 29.2004 12.2086 28.2853ZM25.5193 28.2853C25.5193 27.3702 26.2681 26.6214 27.1832 26.6214C28.0983 26.6214 28.847 27.3702 28.847 28.2853C28.847 29.2004 28.0983 29.9491 27.1832 29.9491C26.2681 29.9491 25.5193 29.2004 25.5193 28.2853Z" fill="white"/>
</svg>
