<svg width="274" height="273" viewBox="0 0 274 273" fill="none" xmlns="http://www.w3.org/2000/svg">
<path d="M273.222 135.522C273.222 127.903 267.247 121.371 260.187 120.283L258.558 116.473L253.67 118.65L254.213 120.283C248.238 121.915 243.894 126.814 242.807 132.801H209.134C208.048 115.929 201.53 99.6007 189.582 87.0826L213.479 63.6792C215.651 65.312 218.91 65.8561 221.626 65.8561C224.341 65.8561 227.6 64.7677 229.772 63.6792L234.661 61.502L233.574 59.3251C235.747 56.6038 236.833 53.3382 236.29 50.0726C236.29 45.7184 234.661 41.9086 231.402 39.1872C228.686 36.4659 224.884 34.8332 220.54 34.8332C216.738 34.8332 213.479 35.9214 210.763 38.6428L207.505 37.5545L205.332 42.4527L206.962 42.9972C205.875 45.1742 204.789 47.8954 204.789 50.6167C204.789 53.8823 205.875 57.6922 208.048 59.8693L184.151 83.2727C171.116 71.2988 154.279 64.2233 136.357 64.2233V31.0232C142.874 30.479 148.305 25.5805 149.934 19.0493H150.478L152.65 14.1508L150.478 13.0625C149.391 5.44279 142.874 0 135.27 0C130.925 0 127.123 1.63293 124.408 4.89853C121.692 7.61986 120.063 11.974 120.063 15.7839V16.328C120.063 20.1378 121.692 23.9478 124.408 26.6692C126.58 28.8462 128.753 29.9345 131.468 30.4788V64.2233C114.089 65.3119 98.3383 72.9317 86.3897 84.3613L63.0358 60.4134C64.6652 57.6921 65.7514 54.9709 65.7514 51.7053C65.7514 49.5282 65.2082 47.3511 64.122 45.174L66.2945 44.0854L64.122 39.1872L60.8634 40.82C58.1478 38.0986 54.346 36.4659 50.0011 36.4659C45.6561 36.4659 41.8543 38.0985 39.1387 41.3641C36.4232 44.0854 34.7937 48.4396 34.7937 52.2494C34.7937 55.515 35.88 58.7807 38.0524 61.502L36.4232 65.8561L41.3112 68.0333L42.3973 65.3119C44.5698 66.9447 47.2855 67.4891 50.0011 67.4891C53.2598 67.4891 55.9752 66.4006 58.6908 64.7678L82.0449 88.7153C70.6395 101.233 64.1221 117.562 63.579 135.522H30.4488C29.3626 128.447 23.3883 123.004 16.3278 123.004L13.6122 121.916L13.0691 123.004C5.46544 124.093 -0.508809 130.624 0.0343071 138.244C0.0343071 146.408 6.00858 152.395 13.6122 153.483L14.1554 155.116L19.0434 152.939C21.759 152.394 23.9314 150.762 26.1038 149.129C28.2763 146.952 29.9057 144.231 30.4488 140.965H64.122C65.2082 158.382 72.2687 174.709 83.6742 186.683L59.7771 210.087C57.6046 208.454 54.889 207.91 51.6303 207.91C48.9148 207.91 46.1992 208.998 44.0268 210.087L43.4836 208.454L38.5956 210.631L40.2249 213.897C38.0524 216.618 36.9661 219.884 36.9661 223.149C36.9661 227.503 38.5956 231.313 41.8543 234.034C45.113 236.756 48.9148 238.389 52.7166 238.389C56.5185 238.389 60.8634 236.756 63.579 233.49L64.122 232.946L66.2945 234.034L68.467 229.136L66.8375 228.592C67.3807 226.959 67.9238 224.782 67.9238 223.149C67.9238 219.884 66.8376 216.074 64.6651 213.897L88.5622 190.493C101.054 201.923 117.891 209.542 136.357 209.542V242.743C132.555 243.287 129.296 244.376 127.123 247.097C125.494 248.73 124.408 250.363 123.865 252.54L121.692 257.438L122.779 257.982C122.779 266.691 129.839 273.222 137.986 273.222C145.589 273.222 152.107 267.235 153.193 260.159L154.279 259.615L153.193 257.438C153.193 250.362 148.305 244.92 141.788 243.287V209.542C159.167 208.454 174.918 200.834 186.866 189.405L210.22 213.352C206.419 218.795 206.419 225.871 210.22 230.769L207.505 231.857L209.677 236.756L214.565 234.579C217.281 236.211 219.996 237.3 222.712 237.3C227.057 237.3 230.859 235.667 233.574 232.402C239.005 226.415 239.549 217.162 234.117 211.175L234.661 209.542L229.772 207.365C227.6 206.277 224.884 205.733 222.712 205.733C219.453 205.733 216.738 206.821 214.022 208.454L190.668 184.506C202.074 171.988 208.591 155.66 209.134 137.699H242.264C242.807 140.965 244.437 143.686 246.609 145.863C248.238 147.496 250.954 149.129 253.126 149.673L252.583 151.306L257.471 153.483L258.558 150.217C262.359 149.673 265.618 148.585 268.334 145.863C271.592 143.142 273.222 139.332 273.222 135.522ZM23.3882 144.775C21.7589 146.952 19.0434 147.496 16.3278 148.04C10.8966 148.04 6.55177 143.686 6.55177 138.244C6.55177 132.801 10.8966 127.903 16.3278 127.903C21.759 127.903 26.1038 132.257 26.1038 137.699C26.6469 140.421 25.5607 142.598 23.3882 144.775ZM107.571 166.545C109.201 174.165 111.373 180.696 114.089 186.683C116.804 193.214 120.063 198.113 123.865 201.378C98.3383 195.936 78.243 176.342 72.2687 150.762C79.3292 158.382 91.8209 163.824 107.571 166.545ZM70.6394 137.155C70.6394 130.624 77.1568 123.548 89.1053 118.106C93.9934 115.929 99.9677 113.752 106.485 112.663C105.399 120.283 104.856 128.447 104.856 136.611C104.856 144.775 105.399 152.939 107.028 160.559C85.3036 156.204 70.6394 147.496 70.6394 137.155ZM137.443 203.556C130.382 203.556 123.865 197.024 118.434 185.051C116.261 180.152 114.089 174.165 113.002 167.634C120.063 168.722 127.667 169.267 135.27 169.267C135.813 169.267 136.357 169.267 136.9 169.267C145.046 169.267 153.193 168.723 160.797 167.09C159.71 173.621 157.538 179.064 155.366 184.506C151.021 196.48 144.503 203.556 137.443 203.556ZM137.443 163.824C128.753 163.824 120.063 163.28 112.459 162.191C110.83 154.572 110.287 145.863 110.287 137.155C110.287 128.447 110.83 119.738 111.916 112.119C119.52 110.486 128.21 109.942 136.9 109.942C145.59 109.942 154.279 110.486 161.883 111.575C163.512 119.194 164.055 127.902 164.055 136.611C164.055 145.319 163.512 154.027 162.426 161.647C154.279 162.736 146.132 163.824 137.443 163.824ZM136.357 69.666C142.874 69.666 149.934 76.1973 155.366 88.1712C157.538 93.0696 159.71 99.0566 160.797 105.588C153.193 104.499 145.046 103.955 136.9 103.955C128.753 103.955 120.606 104.499 113.002 106.132C117.347 84.9055 126.037 69.666 136.357 69.666ZM167.314 112.119C173.831 113.207 179.263 115.384 184.694 117.561C196.642 122.46 203.703 129.535 203.703 136.067C203.703 142.598 197.186 149.673 185.237 155.116C180.349 157.293 174.375 159.47 167.857 160.559C168.943 152.939 169.487 144.775 169.487 136.611C169.487 127.902 168.943 119.738 167.314 112.119ZM221.626 40.2758C224.341 40.2758 227.057 41.3644 228.686 42.9972C230.859 44.63 231.402 47.3512 231.945 50.0726C231.945 52.7939 230.859 55.5151 229.229 57.1479C227.6 59.325 224.884 59.8691 222.169 60.4134C219.453 60.4134 217.281 59.3249 215.108 57.6921C212.936 56.0593 212.393 53.338 211.85 50.6167C211.85 47.8954 212.936 45.1741 214.565 43.5413C216.195 41.3642 218.91 40.2758 221.626 40.2758ZM202.074 121.916C198.272 118.65 193.384 115.384 186.866 112.663C180.892 109.942 173.832 108.309 166.228 106.676C164.599 99.0563 162.426 92.5254 159.71 86.5385C156.995 80.0073 153.736 75.1086 149.934 71.2987C162.426 74.0201 173.832 80.0073 183.065 89.2598C192.841 97.968 199.358 109.398 202.074 121.916ZM126.037 15.7839C126.037 13.0625 127.124 10.3409 128.753 8.70813C130.382 7.07533 133.098 5.98693 135.813 5.44266C138.529 5.44266 140.701 6.53119 142.874 8.16399C145.046 9.79679 145.589 12.5181 146.133 15.2394C146.133 20.682 141.788 25.5806 136.357 25.5806C133.641 25.5806 130.925 24.492 129.296 22.8592C127.123 21.2264 126.037 18.5052 126.037 15.7839ZM122.235 71.2987C115.175 78.9185 109.744 91.4368 107.028 107.221C99.4246 108.853 92.9072 111.03 86.9329 113.752C80.4155 116.473 75.5274 119.739 72.2687 123.548C74.9843 111.03 80.9587 99.6006 90.1916 90.3481C98.3384 80.5513 109.744 74.0201 122.235 71.2987ZM51.0872 62.0465C48.9147 62.0465 45.6561 60.9579 44.0268 59.3251C41.8543 57.6923 41.3111 54.9708 40.768 52.2494C40.768 49.5281 41.8543 46.8068 43.4836 45.174C45.113 42.997 47.8285 42.4528 50.544 41.9086C53.2596 41.9086 55.4322 42.9971 57.6047 44.6299C59.7771 46.2627 60.3203 48.984 60.8634 51.7053C60.8634 54.4266 59.7772 57.1479 58.1478 58.7807C56.5185 60.9577 53.8028 62.0465 51.0872 62.0465ZM45.656 230.225C43.4836 228.592 42.9404 225.87 42.3973 223.149C42.3973 220.428 43.4835 217.707 45.1129 216.074C46.7422 213.897 49.4579 213.352 52.1735 212.808C54.8891 212.808 57.0615 213.896 59.2339 215.529C61.4064 217.162 61.9496 219.884 62.4927 222.605C62.4927 225.326 61.4064 228.048 59.7771 229.68C55.9753 234.035 49.4578 234.034 45.656 230.225ZM148.305 257.438C148.305 262.88 143.96 267.779 138.529 267.779C133.098 267.779 128.753 263.425 128.753 257.982C128.753 255.261 129.839 252.539 131.468 250.907C133.098 248.73 135.813 248.185 138.529 247.641C143.96 247.097 148.305 251.995 148.305 257.438ZM152.107 201.923C155.366 198.113 158.624 193.214 161.34 186.683C164.055 180.696 165.685 173.621 167.314 166.001C174.918 164.368 181.435 162.191 187.953 159.47C194.47 156.749 199.358 153.483 202.617 149.673C199.901 162.191 193.927 173.621 184.694 182.873C175.461 192.67 164.055 198.657 152.107 201.923ZM223.255 211.175C225.971 211.175 228.686 212.264 230.316 213.897C234.117 217.706 234.117 224.238 230.316 228.048C228.686 230.225 225.971 230.769 223.255 231.313C220.54 231.313 217.824 230.225 216.194 228.592C214.022 226.959 213.479 224.238 212.936 221.516C212.936 218.795 214.022 216.074 215.652 214.441C217.824 212.264 220.54 211.175 223.255 211.175ZM265.075 142.598C263.446 144.775 260.73 145.319 258.014 145.863C255.299 145.863 252.583 144.775 250.954 143.142C248.782 141.509 248.238 138.788 247.695 136.067C247.152 133.345 248.782 130.624 250.411 128.991C252.04 126.814 254.756 126.27 257.471 125.725C262.902 125.725 267.248 130.08 267.248 135.522C267.791 138.244 266.704 140.421 265.075 142.598Z" fill="#0048BA" fill-opacity="0.2"/>
<path d="M26.9306 167.563L21.9355 169.699L24.0673 174.705L29.0623 172.569L26.9306 167.563Z" fill="#0048BA" fill-opacity="0.2"/>
<path d="M22.4628 157.284L17.4678 159.42L19.5995 164.426L24.5945 162.289L22.4628 157.284Z" fill="#0048BA" fill-opacity="0.2"/>
<path d="M39.3935 197.609L34.3984 199.745L36.5302 204.751L41.5252 202.614L39.3935 197.609Z" fill="#0048BA" fill-opacity="0.2"/>
<path d="M31.1767 177.34L26.1816 179.477L28.3134 184.482L33.3084 182.346L31.1767 177.34Z" fill="#0048BA" fill-opacity="0.2"/>
<path d="M35.6029 188.24L30.6035 190.368L32.7266 195.378L37.7259 193.25L35.6029 188.24Z" fill="#0048BA" fill-opacity="0.2"/>
<path d="M85.1355 31.2178L80.1182 33.3013L82.1972 38.3292L87.2145 36.2457L85.1355 31.2178Z" fill="#0048BA" fill-opacity="0.2"/>
<path d="M75.2116 34.9541L70.1943 37.0376L72.2734 42.0655L77.2907 39.9821L75.2116 34.9541Z" fill="#0048BA" fill-opacity="0.2"/>
<path d="M95.3669 26.7686L90.3496 28.8521L92.4287 33.88L97.446 31.7965L95.3669 26.7686Z" fill="#0048BA" fill-opacity="0.2"/>
<path d="M115.524 18.5845L110.507 20.668L112.586 25.6959L117.603 23.6124L115.524 18.5845Z" fill="#0048BA" fill-opacity="0.2"/>
<path d="M105.083 22.5284L100.065 24.6118L102.144 29.6397L107.162 27.5563L105.083 22.5284Z" fill="#0048BA" fill-opacity="0.2"/>
<path d="M188.277 28.6244L186.198 33.6523L191.216 35.7358L193.295 30.7079L188.277 28.6244Z" fill="#0048BA" fill-opacity="0.2"/>
<path d="M198.391 33.0995L196.312 38.1274L201.329 40.2109L203.408 35.183L198.391 33.0995Z" fill="#0048BA" fill-opacity="0.2"/>
<path d="M168.359 20.3783L166.28 25.4062L171.298 27.4897L173.377 22.4618L168.359 20.3783Z" fill="#0048BA" fill-opacity="0.2"/>
<path d="M158.032 16.3979L155.953 21.4258L160.97 23.5092L163.049 18.4813L158.032 16.3979Z" fill="#0048BA" fill-opacity="0.2"/>
<path d="M178.462 24.8573L176.383 29.8853L181.4 31.9687L183.479 26.9408L178.462 24.8573Z" fill="#0048BA" fill-opacity="0.2"/>
<path d="M73.3398 230.969L71.2607 235.997L76.278 238.081L78.3571 233.053L73.3398 230.969Z" fill="#0048BA" fill-opacity="0.2"/>
<path d="M103.369 243.69L101.29 248.718L106.307 250.801L108.386 245.773L103.369 243.69Z" fill="#0048BA" fill-opacity="0.2"/>
<path d="M83.4531 235.445L81.374 240.473L86.3913 242.556L88.4704 237.528L83.4531 235.445Z" fill="#0048BA" fill-opacity="0.2"/>
<path d="M113.695 247.671L111.616 252.699L116.634 254.782L118.713 249.754L113.695 247.671Z" fill="#0048BA" fill-opacity="0.2"/>
<path d="M93.2695 239.212L91.1904 244.24L96.2077 246.323L98.2868 241.295L93.2695 239.212Z" fill="#0048BA" fill-opacity="0.2"/>
<path d="M172.448 245.611L167.431 247.694L169.51 252.722L174.527 250.639L172.448 245.611Z" fill="#0048BA" fill-opacity="0.2"/>
<path d="M162.718 249.849L157.7 251.933L159.779 256.961L164.797 254.877L162.718 249.849Z" fill="#0048BA" fill-opacity="0.2"/>
<path d="M182.169 241.371L177.151 243.454L179.23 248.482L184.248 246.399L182.169 241.371Z" fill="#0048BA" fill-opacity="0.2"/>
<path d="M192.602 237.425L187.585 239.508L189.664 244.536L194.681 242.453L192.602 237.425Z" fill="#0048BA" fill-opacity="0.2"/>
<path d="M202.323 233.185L197.306 235.269L199.385 240.296L204.402 238.213L202.323 233.185Z" fill="#0048BA" fill-opacity="0.2"/>
<path d="M31.0283 80.9308L29.002 85.9805L34.041 88.0111L36.0674 82.9614L31.0283 80.9308Z" fill="#0048BA" fill-opacity="0.2"/>
<path d="M18.9072 111.574L16.8809 116.624L21.9199 118.654L23.9463 113.604L18.9072 111.574Z" fill="#0048BA" fill-opacity="0.2"/>
<path d="M22.8418 101.123L20.8154 106.173L25.8545 108.204L27.8808 103.154L22.8418 101.123Z" fill="#0048BA" fill-opacity="0.2"/>
<path d="M27.0898 91.3795L25.0635 96.4292L30.1025 98.4599L32.1289 93.4102L27.0898 91.3795Z" fill="#0048BA" fill-opacity="0.2"/>
<path d="M35.2695 71.1817L33.2432 76.2314L38.2822 78.2621L40.3086 73.2124L35.2695 71.1817Z" fill="#0048BA" fill-opacity="0.2"/>
<path d="M246.589 166.88L244.562 171.93L249.602 173.961L251.628 168.911L246.589 166.88Z" fill="#0048BA" fill-opacity="0.2"/>
<path d="M242.656 177.33L240.63 182.38L245.669 184.411L247.695 179.361L242.656 177.33Z" fill="#0048BA" fill-opacity="0.2"/>
<path d="M250.836 157.133L248.81 162.183L253.849 164.214L255.875 159.164L250.836 157.133Z" fill="#0048BA" fill-opacity="0.2"/>
<path d="M238.403 187.074L236.377 192.124L241.416 194.154L243.442 189.104L238.403 187.074Z" fill="#0048BA" fill-opacity="0.2"/>
<path d="M234.468 197.523L232.441 202.573L237.48 204.603L239.507 199.554L234.468 197.523Z" fill="#0048BA" fill-opacity="0.2"/>
<path d="M249.615 96.3442L244.62 98.4805L246.752 103.486L251.747 101.35L249.615 96.3442Z" fill="#0048BA" fill-opacity="0.2"/>
<path d="M254.34 106.51L249.341 108.638L251.464 113.648L256.463 111.52L254.34 106.51Z" fill="#0048BA" fill-opacity="0.2"/>
<path d="M245.149 86.0654L240.154 88.2017L242.286 93.2073L247.281 91.071L245.149 86.0654Z" fill="#0048BA" fill-opacity="0.2"/>
<path d="M236.936 65.7973L231.941 67.9336L234.073 72.9392L239.068 70.803L236.936 65.7973Z" fill="#0048BA" fill-opacity="0.2"/>
<path d="M241.375 76.6747L236.376 78.8022L238.499 83.8122L243.498 81.6847L241.375 76.6747Z" fill="#0048BA" fill-opacity="0.2"/>
</svg>
