<svg width="85" height="85" viewBox="0 0 85 85" fill="none" xmlns="http://www.w3.org/2000/svg">
<path d="M85 42.1614C85 39.7909 83.1414 37.7589 80.9448 37.4203L80.438 36.2351L78.9173 36.9123L79.0862 37.4203C77.2276 37.9282 75.8759 39.4522 75.538 41.3148H65.0622C64.7242 36.0658 62.6966 30.986 58.9794 27.0916L66.4139 19.8108C67.0897 20.3187 68.1035 20.488 68.9483 20.488C69.7932 20.488 70.8069 20.1494 71.4828 19.8108L73.0035 19.1334L72.6656 18.4562C73.3414 17.6096 73.6794 16.5936 73.5104 15.5777C73.5104 14.2231 73.0035 13.0379 71.9897 12.1913C71.1449 11.3446 69.9622 10.8367 68.6104 10.8367C67.4277 10.8367 66.4139 11.1753 65.569 12.0219L64.5553 11.6833L63.8794 13.2071L64.3863 13.3765C64.0484 14.0538 63.7105 14.9004 63.7105 15.747C63.7105 16.7629 64.0483 17.9482 64.7242 18.6255L57.2898 25.9063C53.2346 22.1812 47.9967 19.9801 42.4209 19.9801V9.65141C44.4485 9.48209 46.1381 7.95817 46.645 5.92629H46.814L47.4898 4.40235L46.814 4.06379C46.476 1.69327 44.4484 0 42.0829 0C40.7312 0 39.5485 0.508009 38.7036 1.52395C37.8588 2.37056 37.3519 3.72514 37.3519 4.9104V5.07968C37.3519 6.26494 37.8588 7.45024 38.7036 8.29685C39.3795 8.97414 40.0554 9.31271 40.9002 9.48203V19.9801C35.4933 20.3187 30.5933 22.6892 26.8761 26.245L19.6106 18.7948C20.1175 17.9482 20.4554 17.1016 20.4554 16.0857C20.4554 15.4084 20.2864 14.7311 19.9485 14.0538L20.6244 13.7151L19.9485 12.1913L18.9348 12.6992C18.0899 11.8526 16.9072 11.3446 15.5555 11.3446C14.2037 11.3446 13.021 11.8525 12.1762 12.8685C11.3313 13.7151 10.8244 15.0697 10.8244 16.2549C10.8244 17.2709 11.1624 18.2868 11.8382 19.1334L11.3313 20.488L12.852 21.1653L13.1899 20.3187C13.8658 20.8267 14.7106 20.9961 15.5555 20.9961C16.5693 20.9961 17.414 20.6574 18.2589 20.1494L25.5244 27.5996C21.9761 31.494 19.9486 36.5737 19.7796 42.1614H9.47272C9.13479 39.9602 7.27616 38.2669 5.07962 38.2669L4.2348 37.9283L4.06582 38.2669C1.70031 38.6055 -0.158292 40.6375 0.010673 43.008C0.010673 45.5478 1.86929 47.4104 4.2348 47.749L4.40377 48.257L5.92444 47.5796C6.76927 47.4103 7.44511 46.9024 8.12097 46.3945C8.79683 45.7172 9.30375 44.8705 9.47272 43.8546H19.9485C20.2864 49.2729 22.483 54.3526 26.0313 58.0777L18.5968 65.3585C17.921 64.8505 17.0761 64.6813 16.0623 64.6813C15.2175 64.6813 14.3727 65.0199 13.6968 65.3585L13.5279 64.8506L12.0072 65.5279L12.5141 66.5438C11.8382 67.3904 11.5003 68.4064 11.5003 69.4223C11.5003 70.7769 12.0072 71.9621 13.021 72.8087C14.0348 73.6554 15.2175 74.1633 16.4003 74.1633C17.583 74.1633 18.9348 73.6554 19.7796 72.6395L19.9485 72.4701L20.6244 72.8087L21.3003 71.2848L20.7933 71.1155C20.9623 70.6076 21.1313 69.9303 21.1313 69.4223C21.1313 68.4064 20.7933 67.2211 20.1175 66.5438L27.5519 59.2629C31.4381 62.8187 36.6761 65.1892 42.4209 65.1892V75.5179C41.2381 75.6872 40.2243 76.0259 39.5485 76.8725C39.0416 77.3805 38.7036 77.8885 38.5346 78.5658L37.8588 80.0896L38.1968 80.259C38.1968 82.9681 40.3933 85 42.9277 85C45.2933 85 47.3209 83.1374 47.6588 80.9362L47.9967 80.7669L47.6588 80.0896C47.6588 77.8884 46.1381 76.1952 44.1105 75.6873V65.1892C49.5174 64.8506 54.4174 62.48 58.1346 58.9243L65.4001 66.3745C64.2174 68.0677 64.2174 70.269 65.4001 71.7929L64.5553 72.1314L65.2311 73.6554L66.7518 72.978C67.5966 73.486 68.4415 73.8246 69.2863 73.8246C70.638 73.8246 71.8208 73.3167 72.6656 72.3008C74.3552 70.4382 74.5242 67.5597 72.8346 65.6972L73.0035 65.1892L71.4828 64.5119C70.8069 64.1732 69.9621 64.004 69.2863 64.004C68.2725 64.004 67.4277 64.3426 66.5828 64.8506L59.3174 57.4004C62.8656 53.506 64.8932 48.4263 65.0622 42.8386H75.369C75.538 43.8545 76.0449 44.7012 76.7207 45.3785C77.2276 45.8864 78.0725 46.3944 78.7483 46.5637L78.5794 47.0717L80.1 47.749L80.438 46.733C81.6207 46.5637 82.6345 46.2251 83.4793 45.3785C84.4931 44.5318 85 43.3466 85 42.1614ZM7.27614 45.0398C6.76925 45.7171 5.92444 45.8865 5.07962 46.0558C3.38997 46.0558 2.03827 44.7012 2.03827 43.008C2.03827 41.3148 3.38997 39.7908 5.07962 39.7908C6.76927 39.7908 8.12097 41.1454 8.12097 42.8386C8.28993 43.6852 7.952 44.3625 7.27614 45.0398ZM33.4657 51.8127C33.9726 54.1832 34.6485 56.2151 35.4933 58.0777C36.3381 60.1095 37.3519 61.6335 38.5346 62.6494C30.5933 60.9562 24.3416 54.8606 22.483 46.9024C24.6795 49.2729 28.5657 50.9661 33.4657 51.8127ZM21.9761 42.6693C21.9761 40.6375 24.0037 38.4363 27.7209 36.743C29.2416 36.0658 31.1002 35.3885 33.1278 35.0498C32.7899 37.4203 32.6209 39.9601 32.6209 42.5C32.6209 45.0398 32.7899 47.5797 33.2968 49.9502C26.5382 48.5956 21.9761 45.8865 21.9761 42.6693ZM42.7588 63.3267C40.5622 63.3267 38.5346 61.2948 36.845 57.5697C36.1691 56.0458 35.4933 54.1832 35.1554 52.1514C37.3519 52.49 39.7174 52.6593 42.0829 52.6593C42.2519 52.6593 42.4209 52.6593 42.5898 52.6593C45.1243 52.6593 47.6588 52.49 50.0243 51.9821C49.6864 54.014 49.0105 55.7072 48.3346 57.4004C46.9829 61.1255 44.9553 63.3267 42.7588 63.3267ZM42.7588 50.9661C40.0553 50.9661 37.3519 50.7968 34.9864 50.4581C34.4795 48.0876 34.3105 45.3785 34.3105 42.6693C34.3105 39.9602 34.4795 37.2509 34.8175 34.8804C37.183 34.3725 39.8864 34.2032 42.5898 34.2032C45.2933 34.2032 47.9967 34.3725 50.3622 34.7111C50.8691 37.0817 51.0381 39.7908 51.0381 42.5C51.0381 45.2091 50.8691 47.9183 50.5312 50.2889C47.9967 50.6275 45.4622 50.9661 42.7588 50.9661ZM42.4209 21.6733C44.4485 21.6733 46.645 23.7052 48.3346 27.4303C49.0105 28.9542 49.6864 30.8168 50.0243 32.8486C47.6588 32.51 45.1243 32.3406 42.5898 32.3406C40.0554 32.3406 37.5209 32.51 35.1554 33.0179C36.5071 26.4143 39.2105 21.6733 42.4209 21.6733ZM52.0518 34.8804C54.0794 35.2191 55.7691 35.8964 57.4587 36.5737C61.176 38.0976 63.3725 40.2988 63.3725 42.3307C63.3725 44.3625 61.3449 46.5637 57.6277 48.257C56.107 48.9342 54.2484 49.6115 52.2208 49.9502C52.5587 47.5797 52.7277 45.0398 52.7277 42.5C52.7277 39.7908 52.5587 37.2509 52.0518 34.8804ZM68.9483 12.5299C69.7932 12.5299 70.638 12.8686 71.1449 13.3765C71.8208 13.8845 71.9897 14.7311 72.1587 15.5777C72.1587 16.4243 71.8208 17.2709 71.3139 17.7789C70.807 18.4562 69.9621 18.6255 69.1173 18.7948C68.2725 18.7948 67.5966 18.4561 66.9208 17.9482C66.2449 17.4402 66.076 16.5936 65.907 15.747C65.907 14.9004 66.2449 14.0538 66.7518 13.5458C67.2587 12.8685 68.1035 12.5299 68.9483 12.5299ZM62.8656 37.9283C61.6829 36.9124 60.1622 35.8964 58.1346 35.0498C56.276 34.2032 54.0795 33.6952 51.7139 33.1872C51.207 30.8167 50.5312 28.7849 49.6863 26.9223C48.8415 24.8905 47.8278 23.3665 46.645 22.1812C50.5312 23.0278 54.0795 24.8905 56.9519 27.769C59.9932 30.4781 62.0208 34.0339 62.8656 37.9283ZM39.2106 4.9104C39.2106 4.06379 39.5485 3.21709 40.0554 2.70912C40.5623 2.20115 41.4071 1.86255 42.2519 1.69323C43.0967 1.69323 43.7726 2.03187 44.4484 2.53984C45.1243 3.04781 45.2933 3.8944 45.4622 4.74101C45.4622 6.43424 44.1105 7.95819 42.4209 7.95819C41.576 7.95819 40.7312 7.61954 40.2243 7.11157C39.5484 6.6036 39.2106 5.75701 39.2106 4.9104ZM38.0278 22.1812C35.8312 24.5517 34.1416 28.4462 33.2968 33.3566C30.9313 33.8646 28.9037 34.5419 27.0451 35.3885C25.0175 36.2351 23.4968 37.251 22.483 38.4363C23.3278 34.5418 25.1865 30.986 28.0589 28.1075C30.5933 25.0597 34.1416 23.0278 38.0278 22.1812ZM15.8934 19.3028C15.2175 19.3028 14.2037 18.9642 13.6968 18.4562C13.021 17.9482 12.852 17.1015 12.683 16.2549C12.683 15.4083 13.021 14.5617 13.5279 14.0538C14.0348 13.3765 14.8796 13.2072 15.7244 13.0379C16.5692 13.0379 17.2451 13.3765 17.921 13.8845C18.5968 14.3924 18.7658 15.239 18.9348 16.0857C18.9348 16.9323 18.5968 17.7789 18.0899 18.2868C17.583 18.9641 16.7382 19.3028 15.8934 19.3028ZM14.2037 71.6235C13.5279 71.1155 13.3589 70.2689 13.1899 69.4223C13.1899 68.5757 13.5278 67.7291 14.0347 67.2211C14.5416 66.5438 15.3865 66.3744 16.2313 66.2051C17.0761 66.2051 17.752 66.5438 18.4278 67.0517C19.1037 67.5597 19.2727 68.4064 19.4416 69.253C19.4416 70.0996 19.1037 70.9462 18.5968 71.4542C17.4141 72.8088 15.3865 72.8087 14.2037 71.6235ZM46.1381 80.0896C46.1381 81.7828 44.7864 83.3068 43.0967 83.3068C41.4071 83.3068 40.0554 81.9522 40.0554 80.259C40.0554 79.4124 40.3933 78.5657 40.9002 78.0577C41.4071 77.3804 42.2519 77.2111 43.0967 77.0418C44.7864 76.8725 46.1381 78.3964 46.1381 80.0896ZM47.3208 62.8187C48.3346 61.6334 49.3484 60.1095 50.1933 58.0777C51.0381 56.2151 51.5449 54.0139 52.0518 51.6434C54.4174 51.1354 56.445 50.4581 58.4725 49.6115C60.5001 48.7649 62.0208 47.749 63.0346 46.5637C62.1897 50.4582 60.3311 54.0139 57.4587 56.8924C54.5863 59.9402 51.0381 61.8027 47.3208 62.8187ZM69.4553 65.6972C70.3001 65.6972 71.1449 66.0358 71.6518 66.5438C72.8345 67.729 72.8345 69.761 71.6518 70.9462C71.1449 71.6235 70.3001 71.7928 69.4553 71.9621C68.6104 71.9621 67.7656 71.6235 67.2587 71.1155C66.5828 70.6076 66.4139 69.761 66.2449 68.9143C66.2449 68.0677 66.5829 67.2211 67.0898 66.7132C67.7656 66.0359 68.6104 65.6972 69.4553 65.6972ZM82.4655 44.3626C81.9586 45.0399 81.1138 45.2091 80.269 45.3785C79.4242 45.3785 78.5794 45.0398 78.0725 44.5318C77.3966 44.0239 77.2276 43.1773 77.0587 42.3307C76.8897 41.4841 77.3966 40.6375 77.9035 40.1295C78.4104 39.4522 79.2552 39.2828 80.1 39.1135C81.7897 39.1135 83.1414 40.4682 83.1414 42.1614C83.3104 43.008 82.9724 43.6853 82.4655 44.3626Z" fill="#0048BA"/>
<path d="M8.37674 52.1294L6.82277 52.7939L7.48596 54.3512L9.03993 53.6866L8.37674 52.1294Z" fill="#0048BA"/>
<path d="M6.98799 48.9316L5.43402 49.5962L6.09721 51.1535L7.65118 50.4889L6.98799 48.9316Z" fill="#0048BA"/>
<path d="M12.2557 61.4765L10.7017 62.1411L11.3649 63.6984L12.9189 63.0338L12.2557 61.4765Z" fill="#0048BA"/>
<path d="M9.69951 55.1709L8.14554 55.8354L8.80873 57.3927L10.3627 56.7281L9.69951 55.1709Z" fill="#0048BA"/>
<path d="M11.0755 58.5622L9.52016 59.2241L10.1806 60.7827L11.736 60.1209L11.0755 58.5622Z" fill="#0048BA"/>
<path d="M26.4865 9.7117L24.9256 10.3599L25.5724 11.9241L27.1333 11.2759L26.4865 9.7117Z" fill="#0048BA"/>
<path d="M23.3974 10.8743L21.8365 11.5225L22.4833 13.0867L24.0442 12.4385L23.3974 10.8743Z" fill="#0048BA"/>
<path d="M29.6679 8.32791L28.107 8.97607L28.7538 10.5403L30.3147 9.89211L29.6679 8.32791Z" fill="#0048BA"/>
<path d="M35.9391 5.78152L34.3782 6.42969L35.025 7.99389L36.5859 7.34572L35.9391 5.78152Z" fill="#0048BA"/>
<path d="M32.6931 7.00857L31.1322 7.65674L31.779 9.22094L33.3399 8.57277L32.6931 7.00857Z" fill="#0048BA"/>
<path d="M58.574 8.90504L57.9272 10.4692L59.4881 11.1174L60.1349 9.5532L58.574 8.90504Z" fill="#0048BA"/>
<path d="M61.7202 10.2976L61.0734 11.8618L62.6343 12.51L63.2811 10.9458L61.7202 10.2976Z" fill="#0048BA"/>
<path d="M52.3762 6.34009L51.7294 7.9043L53.2903 8.55246L53.9371 6.98826L52.3762 6.34009Z" fill="#0048BA"/>
<path d="M49.1657 5.10132L48.5189 6.66553L50.0798 7.31369L50.7266 5.74949L49.1657 5.10132Z" fill="#0048BA"/>
<path d="M55.5208 7.73316L54.874 9.29736L56.4349 9.94553L57.0817 8.38133L55.5208 7.73316Z" fill="#0048BA"/>
<path d="M22.8158 71.8552L22.169 73.4194L23.7299 74.0676L24.3767 72.5034L22.8158 71.8552Z" fill="#0048BA"/>
<path d="M32.1599 75.8128L31.5131 77.377L33.074 78.0251L33.7208 76.4609L32.1599 75.8128Z" fill="#0048BA"/>
<path d="M25.962 73.2473L25.3152 74.8115L26.8761 75.4597L27.5229 73.8955L25.962 73.2473Z" fill="#0048BA"/>
<path d="M35.3702 77.051L34.7234 78.6152L36.2843 79.2634L36.9311 77.6992L35.3702 77.051Z" fill="#0048BA"/>
<path d="M29.0152 74.4197L28.3684 75.9839L29.9293 76.6321L30.5761 75.0679L29.0152 74.4197Z" fill="#0048BA"/>
<path d="M53.6474 76.4104L52.0865 77.0586L52.7333 78.6228L54.2942 77.9746L53.6474 76.4104Z" fill="#0048BA"/>
<path d="M50.6222 77.7288L49.0613 78.377L49.7081 79.9412L51.269 79.293L50.6222 77.7288Z" fill="#0048BA"/>
<path d="M56.6727 75.0911L55.1118 75.7393L55.7586 77.3035L57.3195 76.6553L56.6727 75.0911Z" fill="#0048BA"/>
<path d="M59.9187 73.8636L58.3578 74.5117L59.0046 76.0759L60.5655 75.4278L59.9187 73.8636Z" fill="#0048BA"/>
<path d="M62.9432 72.5447L61.3823 73.1929L62.0291 74.7571L63.59 74.1089L62.9432 72.5447Z" fill="#0048BA"/>
<path d="M9.65288 25.178L9.02248 26.749L10.5901 27.3808L11.2205 25.8098L9.65288 25.178Z" fill="#0048BA"/>
<path d="M5.88201 34.7113L5.2516 36.2822L6.81926 36.914L7.44967 35.343L5.88201 34.7113Z" fill="#0048BA"/>
<path d="M7.10705 31.4598L6.47664 33.0308L8.0443 33.6625L8.6747 32.0915L7.10705 31.4598Z" fill="#0048BA"/>
<path d="M8.42748 28.4285L7.79707 29.9995L9.36473 30.6313L9.99514 29.0603L8.42748 28.4285Z" fill="#0048BA"/>
<path d="M10.9726 22.1448L10.3422 23.7158L11.9098 24.3476L12.5402 22.7766L10.9726 22.1448Z" fill="#0048BA"/>
<path d="M76.7152 51.9168L76.0848 53.4878L77.6525 54.1195L78.2829 52.5486L76.7152 51.9168Z" fill="#0048BA"/>
<path d="M75.4904 55.1683L74.86 56.7393L76.4277 57.371L77.0581 55.8L75.4904 55.1683Z" fill="#0048BA"/>
<path d="M78.0354 48.8846L77.405 50.4556L78.9726 51.0873L79.603 49.5163L78.0354 48.8846Z" fill="#0048BA"/>
<path d="M74.1697 58.199L73.5393 59.77L75.1069 60.4018L75.7373 58.8308L74.1697 58.199Z" fill="#0048BA"/>
<path d="M72.9443 61.45L72.3139 63.021L73.8815 63.6527L74.5119 62.0818L72.9443 61.45Z" fill="#0048BA"/>
<path d="M77.6556 29.9731L76.1016 30.6377L76.7648 32.195L78.3188 31.5304L77.6556 29.9731Z" fill="#0048BA"/>
<path d="M79.1264 33.1355L77.5711 33.7974L78.2316 35.356L79.7869 34.6941L79.1264 33.1355Z" fill="#0048BA"/>
<path d="M76.2668 26.7753L74.7129 27.4399L75.376 28.9972L76.93 28.3326L76.2668 26.7753Z" fill="#0048BA"/>
<path d="M73.7107 20.4697L72.1568 21.1343L72.82 22.6915L74.3739 22.0269L73.7107 20.4697Z" fill="#0048BA"/>
<path d="M75.0914 23.8537L73.5361 24.5156L74.1965 26.0742L75.7519 25.4124L75.0914 23.8537Z" fill="#0048BA"/>
</svg>
