<svg width="18" height="21" viewBox="0 0 18 21" fill="none" xmlns="http://www.w3.org/2000/svg">
<path d="M1.89276 11.3526L9.31836 3.92702C9.67595 3.56953 10.1005 3.28596 10.5676 3.09252C11.0348 2.89908 11.5355 2.79955 12.0412 2.79961C12.5468 2.79968 13.0475 2.89934 13.5146 3.0929C13.9817 3.28646 14.4062 3.57013 14.7637 3.92772C15.1212 4.28531 15.4047 4.70982 15.5982 5.17699C15.7916 5.64417 15.8911 6.14488 15.8911 6.65052C15.891 7.15616 15.7913 7.65684 15.5978 8.12397C15.4042 8.5911 15.1205 9.01553 14.763 9.37302L5.85336 18.2826C5.52494 18.611 5.07951 18.7955 4.61506 18.7955C4.15061 18.7955 3.70518 18.611 3.37676 18.2826C3.04834 17.9542 2.86384 17.5088 2.86384 17.0443C2.86384 16.5799 3.04834 16.1344 3.37676 15.806L11.2966 7.88622C11.482 7.68718 11.583 7.42391 11.5782 7.15189C11.5734 6.87987 11.4632 6.62033 11.2708 6.42795C11.0785 6.23557 10.8189 6.12538 10.5469 6.12058C10.2749 6.11578 10.0116 6.21675 9.81256 6.40222L1.89276 14.322C1.17058 15.0442 0.764858 16.0237 0.764858 17.045C0.764858 18.0663 1.17058 19.0458 1.89276 19.768C2.61495 20.4902 3.59444 20.8959 4.61576 20.8959C5.63708 20.8959 6.61658 20.4902 7.33876 19.768L16.247 10.857C17.3413 9.73685 17.95 8.23038 17.9409 6.66437C17.9317 5.09837 17.3056 3.59909 16.1982 2.49174C15.0909 1.38438 13.5916 0.758244 12.0256 0.749124C10.4596 0.740005 8.95314 1.34864 7.83296 2.44302L0.408761 9.86722C0.223289 10.0663 0.122317 10.3295 0.127117 10.6016C0.131916 10.8736 0.242113 11.1331 0.434491 11.3255C0.626869 11.5179 0.886408 11.6281 1.15843 11.6329C1.43045 11.6377 1.69372 11.5367 1.89276 11.3512V11.3526Z" fill="#3232EE"/>
</svg>
