<svg width="50" height="56" viewBox="0 0 50 56" fill="none" xmlns="http://www.w3.org/2000/svg">
<path d="M9.50001 49.7H49.8V55.9H9.50001C4.35401 55.9 0.200012 51.746 0.200012 46.6V9.40004C0.200012 4.25404 4.35401 0.100037 9.50001 0.100037H49.8V43.5H9.50001C7.79501 43.5 6.40001 44.895 6.40001 46.6C6.40001 48.305 7.79501 49.7 9.50001 49.7ZM15.7 38.85V4.75004C15.7 3.88204 15.018 3.20004 14.15 3.20004C13.282 3.20004 12.6 3.88204 12.6 4.75004V38.85C12.6 39.718 13.282 40.4 14.15 40.4C15.018 40.4 15.7 39.718 15.7 38.85Z" fill="#0048BA"/>
</svg>
