<svg width="31" height="34" viewBox="0 0 31 34" fill="none" xmlns="http://www.w3.org/2000/svg">
<path d="M23.847 0.327637C22.9319 0.327637 22.1832 1.07637 22.1832 1.99148V3.65532H8.87243V1.99148C8.87243 1.07637 8.1237 0.327637 7.20859 0.327637C6.29348 0.327637 5.54475 1.07637 5.54475 1.99148V3.65532H3.88091C2.03404 3.65532 0.569861 5.15278 0.569861 6.983L0.553223 30.2768C0.553223 31.1593 0.903817 32.0058 1.52788 32.6298C2.15194 33.2539 2.99835 33.6045 3.88091 33.6045H27.1747C29.0049 33.6045 30.5024 32.107 30.5024 30.2768V6.983C30.5024 5.15278 29.0049 3.65532 27.1747 3.65532H25.5108V1.99148C25.5108 1.07637 24.7621 0.327637 23.847 0.327637ZM27.1747 30.2768H3.88091V13.6384H27.1747V30.2768ZM13.864 18.6299C13.864 17.7148 14.6127 16.9661 15.5278 16.9661C16.4429 16.9661 17.1916 17.7148 17.1916 18.6299C17.1916 19.545 16.4429 20.2937 15.5278 20.2937C14.6127 20.2937 13.864 19.545 13.864 18.6299ZM7.20859 18.6299C7.20859 17.7148 7.95732 16.9661 8.87243 16.9661C9.78754 16.9661 10.5363 17.7148 10.5363 18.6299C10.5363 19.545 9.78754 20.2937 8.87243 20.2937C7.95732 20.2937 7.20859 19.545 7.20859 18.6299ZM20.5193 18.6299C20.5193 17.7148 21.2681 16.9661 22.1832 16.9661C23.0983 16.9661 23.847 17.7148 23.847 18.6299C23.847 19.545 23.0983 20.2937 22.1832 20.2937C21.2681 20.2937 20.5193 19.545 20.5193 18.6299ZM13.864 25.2853C13.864 24.3702 14.6127 23.6214 15.5278 23.6214C16.4429 23.6214 17.1916 24.3702 17.1916 25.2853C17.1916 26.2004 16.4429 26.9491 15.5278 26.9491C14.6127 26.9491 13.864 26.2004 13.864 25.2853ZM7.20859 25.2853C7.20859 24.3702 7.95732 23.6214 8.87243 23.6214C9.78754 23.6214 10.5363 24.3702 10.5363 25.2853C10.5363 26.2004 9.78754 26.9491 8.87243 26.9491C7.95732 26.9491 7.20859 26.2004 7.20859 25.2853ZM20.5193 25.2853C20.5193 24.3702 21.2681 23.6214 22.1832 23.6214C23.0983 23.6214 23.847 24.3702 23.847 25.2853C23.847 26.2004 23.0983 26.9491 22.1832 26.9491C21.2681 26.9491 20.5193 26.2004 20.5193 25.2853Z" fill="white"/>
</svg>
