<svg width="62" height="50" viewBox="0 0 62 50" fill="none" xmlns="http://www.w3.org/2000/svg">
<path d="M20.15 34.1C19.9185 34.1 19.687 34.1339 19.4661 34.2056C18.2106 34.6134 16.8902 34.875 15.5 34.875C14.1099 34.875 12.7895 34.6134 11.533 34.2056C11.3121 34.1339 11.0816 34.1 10.85 34.1C4.83797 34.1 -0.0319343 38.9902 3.44292e-05 45.0101C0.0135969 47.554 2.10513 49.6 4.65003 49.6H26.35C28.8949 49.6 30.9865 47.554 31 45.0101C31.032 38.9902 26.1621 34.1 20.15 34.1ZM15.5 31C20.6363 31 24.8 26.8363 24.8 21.7C24.8 16.5637 20.6363 12.4 15.5 12.4C10.3637 12.4 6.20003 16.5637 6.20003 21.7C6.20003 26.8363 10.3637 31 15.5 31ZM57.35 0H20.15C17.5858 0 15.5 2.15547 15.5 4.80403V9.3C17.7688 9.3 19.8691 9.95681 21.7 11.0244V6.2H55.8V34.1H49.6V27.9H37.2V34.1H29.8143C31.6646 35.7168 33.0228 37.852 33.6593 40.3H57.35C59.9143 40.3 62 38.1445 62 35.496V4.80403C62 2.15547 59.9143 0 57.35 0Z" fill="#0048BA"/>
</svg>
