<svg width="29" height="31" viewBox="0 0 29 31" fill="none" xmlns="http://www.w3.org/2000/svg">
<path fill-rule="evenodd" clip-rule="evenodd" d="M0.442383 4.98297C0.442383 3.9239 0.863096 2.90821 1.61197 2.15933C2.36084 1.41046 3.37654 0.989746 4.4356 0.989746H24.4017C25.4608 0.989746 26.4765 1.41046 27.2253 2.15933C27.9742 2.90821 28.3949 3.9239 28.3949 4.98297V20.9558C28.3949 22.0149 27.9742 23.0306 27.2253 23.7795C26.4765 24.5284 25.4608 24.9491 24.4017 24.9491H19.9692L20.2148 25.9254L21.8201 27.5307C22.0992 27.8099 22.2893 28.1656 22.3663 28.5529C22.4433 28.9401 22.4038 29.3415 22.2527 29.7063C22.1016 30.0711 21.8458 30.3829 21.5175 30.6023C21.1893 30.8217 20.8033 30.9388 20.4085 30.9389H8.42882C8.03399 30.9388 7.64805 30.8217 7.31979 30.6023C6.99153 30.3829 6.73568 30.0711 6.5846 29.7063C6.43352 29.3415 6.39398 28.9401 6.47098 28.5529C6.54799 28.1656 6.73808 27.8099 7.01722 27.5307L8.6225 25.9254L8.86808 24.9491H4.4356C3.37654 24.9491 2.36084 24.5284 1.61197 23.7795C0.863096 23.0306 0.442383 22.0149 0.442383 20.9558V4.98297ZM11.9648 18.9592H4.4356V4.98297H24.4017V18.9592H11.9648Z" fill="white"/>
</svg>
