<svg width="48" height="62" viewBox="0 0 48 62" fill="none" xmlns="http://www.w3.org/2000/svg">
<path d="M4.92304 0C2.31904 0 0.153809 2.16523 0.153809 4.76923V50.0769C0.153809 52.6809 2.31904 54.8462 4.92304 54.8462H9.69227V62L16.8461 57.2308L24 62V44.9357C23.6708 45.1255 23.3202 45.2752 22.9555 45.3816C22.7003 45.9317 22.3385 46.4257 21.8912 46.835C21.4438 47.2443 20.9196 47.5608 20.3491 47.7662C19.8446 47.931 19.3153 48.0068 18.7848 47.9904C18.1171 47.9904 17.4494 47.9045 16.8461 47.6184C16.2356 47.8849 15.5733 48.012 14.9074 47.9904C14.3733 47.9904 13.851 47.9498 13.3431 47.7662C12.1923 47.3477 11.2543 46.4903 10.7343 45.3816C10.3706 45.2745 10.0208 45.1249 9.69227 44.9357V50.0769H4.92304V4.76923H43.0769V50.0769H31.1538C30.5214 50.0769 29.9148 50.3282 29.4676 50.7754C29.0204 51.2226 28.7692 51.8291 28.7692 52.4615C28.7692 53.094 29.0204 53.7005 29.4676 54.1477C29.9148 54.5949 30.5214 54.8462 31.1538 54.8462H43.0769C45.6809 54.8462 47.8461 52.6809 47.8461 50.0769V4.76923C47.8461 2.16523 45.6809 0 43.0769 0H4.92304ZM11.631 11.9231C10.9985 11.9822 10.4155 12.2902 10.0101 12.7792C9.6047 13.2682 9.41018 13.8982 9.46931 14.5307C9.52844 15.1631 9.83639 15.7461 10.3254 16.1515C10.8144 16.5569 11.4444 16.7514 12.0769 16.6923H35.923C36.5555 16.6923 37.162 16.4411 37.6092 15.9939C38.0564 15.5467 38.3077 14.9401 38.3077 14.3077C38.3077 13.6753 38.0564 13.0687 37.6092 12.6215C37.162 12.1743 36.5555 11.9231 35.923 11.9231H12.0769C12.0022 11.9196 11.9274 11.9196 11.8527 11.9231C11.7788 11.9196 11.7048 11.9196 11.631 11.9231ZM11.631 21.4615C10.9985 21.5207 10.4155 21.8286 10.0101 22.3176C9.6047 22.8067 9.41018 23.4367 9.46931 24.0691C9.52844 24.7016 9.83639 25.2846 10.3254 25.69C10.8144 26.0954 11.4444 26.2899 12.0769 26.2308H28.7692C29.4016 26.2308 30.0082 25.9795 30.4554 25.5323C30.9026 25.0851 31.1538 24.4786 31.1538 23.8462C31.1538 23.2137 30.9026 22.6072 30.4554 22.16C30.0082 21.7128 29.4016 21.4615 28.7692 21.4615H12.0769C12.0022 21.458 11.9274 21.458 11.8527 21.4615C11.7788 21.4581 11.7048 21.4581 11.631 21.4615ZM16.8461 30.1797C16.3673 30.1802 15.9008 30.3316 15.5129 30.6124C15.125 30.8933 14.8356 31.2892 14.6857 31.744C14.5879 31.7774 14.4806 31.7822 14.3876 31.8203C13.9846 31.5781 13.5153 31.4694 13.0469 31.5097C12.5784 31.5499 12.1346 31.7371 11.7788 32.0445C11.4186 32.3452 11.1606 32.7504 11.0406 33.204C10.9206 33.6577 10.9444 34.1374 11.1087 34.5769C11.0443 34.6747 11.0181 34.7725 10.9585 34.875C10.4927 34.9526 10.0628 35.1738 9.72885 35.5077C9.39493 35.8416 9.17371 36.2716 9.09612 36.7374C9.01955 37.191 9.08609 37.6572 9.2865 38.0712C9.48691 38.4853 9.81125 38.8267 10.2145 39.0481C10.2312 39.1983 10.1835 39.3509 10.2145 39.4964C9.9266 39.8469 9.75118 40.2762 9.71119 40.728C9.6712 41.1798 9.76849 41.6332 9.99035 42.0288C10.453 42.8325 11.3734 43.2808 12.301 43.1472C12.4203 43.2593 12.5419 43.3428 12.673 43.4453C12.6969 44.3682 13.2859 45.2099 14.1634 45.5318C15.0314 45.849 16.0139 45.5438 16.622 44.8594C16.7102 44.8642 16.7555 44.9357 16.8461 44.9357C16.9439 44.9357 17.0464 44.8642 17.1442 44.8594C17.3501 45.0918 17.6025 45.2784 17.8852 45.407C18.1678 45.5356 18.4743 45.6033 18.7848 45.6058C19.0423 45.6058 19.276 45.6225 19.5288 45.5318C19.9577 45.3734 20.329 45.0897 20.5948 44.7177C20.8605 44.3457 21.0084 43.9024 21.0192 43.4453C21.1456 43.3452 21.2696 43.2593 21.3912 43.1472C21.8439 43.2115 22.3054 43.1394 22.717 42.9402C23.1285 42.741 23.4714 42.4237 23.7019 42.0288C23.9243 41.6329 24.0219 41.1791 23.9819 40.7268C23.9419 40.2744 23.7661 39.8447 23.4777 39.494C23.5111 39.3509 23.4563 39.1935 23.4777 39.0481C23.8825 38.8283 24.2081 38.4872 24.4087 38.0727C24.6093 37.6581 24.6749 37.1911 24.5961 36.7374C24.5189 36.2714 24.2978 35.8413 23.9638 35.5073C23.6298 35.1734 23.1997 34.9523 22.7337 34.875C22.6765 34.7701 22.6479 34.6771 22.5835 34.5769C22.7491 34.1372 22.7736 33.6567 22.6535 33.2024C22.5334 32.7481 22.2747 32.3425 21.9134 32.0421C21.5575 31.7347 21.1136 31.5478 20.645 31.5079C20.1765 31.4681 19.7073 31.5774 19.3047 31.8203C19.2093 31.7822 19.1043 31.7774 19.0066 31.7464C18.8571 31.2912 18.5678 30.8947 18.1799 30.6134C17.792 30.3321 17.3253 30.1804 16.8461 30.1797ZM16.8461 34.3528C18.9589 34.3528 20.6472 36.0411 20.6472 38.1538C20.6472 40.2714 18.9613 41.9549 16.8461 41.9549C16.3462 41.9578 15.8506 41.8614 15.3881 41.6714C14.9257 41.4814 14.5055 41.2015 14.152 40.848C13.7985 40.4944 13.5186 40.0743 13.3286 39.6118C13.1386 39.1494 13.0422 38.6538 13.045 38.1538C13.045 36.0387 14.7333 34.3528 16.8461 34.3528Z" fill="#0048BA"/>
</svg>
