<svg width="28" height="23" viewBox="0 0 28 23" fill="none" xmlns="http://www.w3.org/2000/svg">
<path d="M8.80002 11.0001C10.1792 11.0001 11.5018 10.4522 12.477 9.47705C13.4522 8.50186 14 7.17922 14 5.8001C14 4.42097 13.4522 3.09833 12.477 2.12314C11.5018 1.14795 10.1792 0.600098 8.80002 0.600098C7.4209 0.600098 6.09826 1.14795 5.12307 2.12314C4.14788 3.09833 3.60002 4.42097 3.60002 5.8001C3.60002 7.17922 4.14788 8.50186 5.12307 9.47705C6.09826 10.4522 7.4209 11.0001 8.80002 11.0001ZM17.8992 19.2321C18.7472 19.5793 19.8256 19.8001 21.1984 19.8001C27.5984 19.8001 27.5984 15.0001 27.5984 15.0001C27.5984 14.3639 27.3458 13.7536 26.896 13.3036C26.4463 12.8536 25.8363 12.6005 25.2 12.6001H17.7952C18.424 13.3617 18.8016 14.3361 18.8016 15.4001V15.9697C18.7983 16.1044 18.7893 16.2389 18.7744 16.3729C18.6665 17.3726 18.37 18.3428 17.9008 19.2321H17.8992ZM25.2 7.0001C25.2 8.06096 24.7786 9.07838 24.0285 9.82852C23.2783 10.5787 22.2609 11.0001 21.2 11.0001C20.1392 11.0001 19.1217 10.5787 18.3716 9.82852C17.6215 9.07838 17.2 8.06096 17.2 7.0001C17.2 5.93923 17.6215 4.92182 18.3716 4.17167C19.1217 3.42153 20.1392 3.0001 21.2 3.0001C22.2609 3.0001 23.2783 3.42153 24.0285 4.17167C24.7786 4.92182 25.2 5.93923 25.2 7.0001ZM0.400024 15.8001C0.400024 14.9514 0.737166 14.1375 1.33728 13.5374C1.9374 12.9372 2.75133 12.6001 3.60002 12.6001H14C14.8487 12.6001 15.6626 12.9372 16.2628 13.5374C16.8629 14.1375 17.2 14.9514 17.2 15.8001C17.2 15.8001 17.2 22.2001 8.80002 22.2001C0.400024 22.2001 0.400024 15.8001 0.400024 15.8001ZM18.8 15.9697L18.7952 16.0721L18.7984 15.9697H18.8Z" fill="#0048BA"/>
</svg>
