<svg width="400" height="494" viewBox="0 0 400 494" fill="none" xmlns="http://www.w3.org/2000/svg">
<path opacity="0.07" d="M399.945 248.034C392.984 243.978 387.942 243.868 384.818 247.705C381.694 251.487 380.159 257.899 380.159 266.943V315.668C380.159 324.931 379.282 332.605 377.583 338.688C375.884 344.992 372.979 349.486 368.978 352.117C365.086 354.802 359.825 355.515 353.138 354.254C346.616 353.049 338.449 349.65 328.693 344.005L324.034 341.319V302.953L329.844 306.296C336.805 310.352 341.463 310.845 343.82 307.886C346.287 305.035 347.547 299.061 347.547 290.018V247.102C347.547 235.921 348.644 227.096 350.836 220.574C353.028 214.052 357.358 209.941 363.881 208.077C357.358 198.705 353.028 189.552 350.836 180.563C348.644 171.574 347.602 161.489 347.602 150.308V107.392C347.602 98.3487 346.342 91.0042 343.875 85.2492C341.573 79.6038 336.914 74.7806 329.899 70.7247L324.089 67.3813V29.0146L328.748 31.7003C338.504 37.3457 346.67 43.3199 353.193 49.6778C359.879 56.0906 365.141 62.9417 369.033 70.1218C373.089 77.4115 375.939 85.1944 377.638 93.4706C379.337 101.528 380.214 110.242 380.214 119.45V168.176C380.214 177.22 381.748 185.441 384.873 192.786C387.997 200.185 393.039 205.885 400 209.886L399.945 248.034Z" fill="url(#paint0_linear_212_92)"/>
<path opacity="0.07" d="M223.184 106.899C230.145 110.955 235.188 111.064 238.312 107.228C241.436 103.446 242.971 97.0332 242.971 87.9896V39.264C242.971 30.0012 243.848 22.3278 245.547 16.244C247.246 9.94088 250.041 5.39169 253.933 2.70602C257.989 0.0751672 263.25 -0.637357 269.773 0.568453C276.459 1.82907 284.681 5.28207 294.437 10.9275L299.096 13.6131V51.9798L293.286 48.6364C286.325 44.5805 281.557 44.0324 279.09 46.8825C276.788 49.8422 275.582 55.8165 275.582 64.86V107.776C275.582 118.957 274.486 127.781 272.294 134.304C270.101 140.771 265.771 144.937 259.249 146.8C265.771 156.173 270.101 165.326 272.294 174.315C274.486 183.303 275.528 193.388 275.528 204.57V247.485C275.528 256.529 276.679 263.873 279.035 269.519C281.502 275.274 286.27 280.152 293.231 284.153L299.041 287.496V325.863L294.382 323.177C284.626 317.532 276.404 311.503 269.718 305.09C263.195 298.732 257.934 291.936 253.878 284.646C249.986 277.466 247.191 269.738 245.492 261.407C243.793 253.35 242.916 244.635 242.916 235.427V186.702C242.916 177.658 241.381 169.437 238.257 162.092C235.133 154.693 230.09 148.993 223.13 144.992L223.184 106.899Z" fill="url(#paint1_linear_212_92)"/>
<path opacity="0.4" d="M378.021 264.476C371.061 260.42 366.018 260.311 362.894 264.147C359.77 267.929 358.235 274.342 358.235 283.386V332.111C358.235 341.374 357.358 349.047 355.659 355.131C353.96 361.434 351.055 365.929 347.054 368.56C343.163 371.245 337.901 371.958 331.214 370.697C324.692 369.491 316.525 366.093 306.769 360.448L302.11 357.762V319.395L307.92 322.739C314.881 326.795 319.54 327.288 321.896 324.328C324.363 321.478 325.624 315.504 325.624 306.46V263.545C325.624 252.363 326.72 243.539 328.912 237.017C331.104 230.494 335.434 226.384 341.957 224.52C335.434 215.148 331.104 205.995 328.912 197.006C326.72 188.017 325.678 177.932 325.678 166.751V123.835C325.678 114.791 324.418 107.447 321.951 101.692C319.649 96.0466 314.99 91.2234 307.975 87.1674L302.165 83.8241V45.4574L306.824 48.1431C316.58 53.7884 324.747 59.7627 331.269 66.1206C337.956 72.5333 343.217 79.3845 347.109 86.5645C351.165 93.8542 354.015 101.637 355.714 109.913C357.413 117.97 358.29 126.685 358.29 135.893V184.619C358.29 193.662 359.825 201.884 362.949 209.228C366.073 216.628 371.115 222.328 378.076 226.329L378.021 264.476Z" fill="url(#paint2_linear_212_92)"/>
<path opacity="0.4" d="M201.261 123.342C208.221 127.398 213.264 127.507 216.388 123.671C219.512 119.889 221.047 113.476 221.047 104.433V55.7068C221.047 46.444 221.924 38.7707 223.623 32.6868C225.322 26.3838 228.117 21.8346 232.009 19.1489C236.065 16.518 241.326 15.8055 247.849 17.0113C254.535 18.2719 262.757 21.7249 272.513 27.3703L277.172 30.056V68.4227L271.362 65.0793C264.401 61.0234 259.633 60.4753 257.166 63.3254C254.864 66.2851 253.659 72.2593 253.659 81.3029V124.219C253.659 135.4 252.562 144.224 250.37 150.747C248.178 157.214 243.848 161.38 237.325 163.243C243.848 172.616 248.178 181.769 250.37 190.758C252.562 199.746 253.604 209.831 253.604 221.012V263.928C253.604 272.972 254.755 280.316 257.112 285.962C259.578 291.717 264.346 296.595 271.307 300.596L277.117 303.939V342.306L272.458 339.62C262.702 333.975 254.481 327.946 247.794 321.533C241.272 315.175 236.01 308.379 231.954 301.089C228.062 293.909 225.267 286.181 223.568 277.85C221.869 269.793 220.992 261.078 220.992 251.87V203.144C220.992 194.101 219.457 185.879 216.333 178.535C213.209 171.136 208.167 165.436 201.206 161.434L201.261 123.342Z" fill="url(#paint3_linear_212_92)"/>
<path opacity="0.15" d="M79.5835 6.70715L173.253 60.8042L173.198 285.14L79.5287 231.043L79.5835 6.70715Z" fill="url(#paint4_linear_212_92)"/>
<path d="M61.9896 41.1824L136.476 84.2079V104.871L61.9896 61.8456V41.1824Z" fill="#F2C94C"/>
<path opacity="0.15" d="M91.1484 130.851L162.73 172.177V204.295L91.1484 162.969V130.851Z" fill="white"/>
<path opacity="0.15" d="M91.0935 91.9907L162.784 133.372V140.826L91.0935 99.4996V91.9907Z" fill="white"/>
<path opacity="0.15" d="M91.0935 106.57L153.083 142.361V149.815L91.0935 114.024V106.57Z" fill="white"/>
<path opacity="0.2" d="M79.5835 6.70715L173.253 60.8042V90.8946L79.5835 36.7976V6.70715Z" fill="url(#paint5_linear_212_92)"/>
<path opacity="0.2" d="M102.987 35.4273C102.987 39.9765 100.302 42.1141 97.0129 40.2506C93.7244 38.3322 91.0935 33.1253 91.0935 28.5761C91.0935 24.0269 93.7792 21.8894 97.0677 23.7529C100.302 25.6712 102.987 30.8781 102.987 35.4273Z" fill="white"/>
<path opacity="0.15" d="M194.683 214.709L288.353 268.806L288.298 493.142L194.629 439.045L194.683 214.709Z" fill="url(#paint6_linear_212_92)"/>
<path d="M230.365 279.987L304.851 322.958V343.566L230.31 300.596L230.365 279.987Z" fill="#F2994A"/>
<path opacity="0.15" d="M206.248 301.308L277.884 342.69V374.753L206.248 333.372V301.308Z" fill="white"/>
<path opacity="0.15" d="M206.139 347.129L277.83 388.51V395.964L206.139 354.638V347.129Z" fill="white"/>
<path opacity="0.15" d="M206.139 360.612L268.128 396.403V403.857L206.139 368.066V360.612Z" fill="white"/>
<path opacity="0.2" d="M194.684 214.709L288.353 268.806V298.897L194.684 244.8V214.709Z" fill="url(#paint7_linear_212_92)"/>
<path opacity="0.2" d="M218.087 243.484C218.087 248.033 215.402 250.171 212.113 248.307C208.824 246.389 206.194 241.182 206.194 236.633C206.194 232.084 208.879 229.946 212.168 231.81C215.402 233.673 218.087 238.935 218.087 243.484Z" fill="white"/>
<path opacity="0.3" d="M178.46 245.786L15.4015 151.678L15.4563 236.688L164.155 322.52L178.569 343.841L178.46 245.786Z" fill="url(#paint8_linear_212_92)"/>
<path opacity="0.15" d="M136.531 242.278L100.795 221.67V229.124L136.531 249.733V242.278Z" fill="white"/>
<path opacity="0.15" d="M136.531 257.241L48.0681 206.159V213.613L136.586 264.696L136.531 257.241Z" fill="white"/>
<path opacity="0.15" d="M136.585 272.204L29.7617 210.544V217.998L136.585 279.659V272.204Z" fill="white"/>
<path d="M145.355 255.159C145.355 262.174 149.521 270.231 154.618 273.191C159.715 276.151 163.881 272.862 163.881 265.847C163.881 258.831 159.715 250.774 154.618 247.814C149.466 244.854 145.355 248.143 145.355 255.159Z" fill="#F2994A"/>
<path opacity="0.15" d="M31.5155 91.9908L9.92053 79.4943V72.2046L31.5155 84.7012C33.2694 85.7425 35.8454 87.7705 38.0378 90.9494C40.3946 94.3476 42.0937 98.6228 42.0937 103.282C42.0937 108.434 40.7783 111.339 38.3119 112.216C35.9551 112.983 33.2146 111.667 31.5155 110.681L22.6363 105.529L22.5815 105.474C21.8142 105.035 20.6084 104.597 19.6766 104.871C18.9093 105.09 17.9775 105.912 17.9775 108.763C17.9775 111.613 18.8545 113.367 19.6218 114.408C20.5536 115.723 21.7594 116.655 22.5267 117.039L22.6363 117.094L49.8219 132.769V140.059L22.8008 124.438C20.9372 123.451 18.2516 121.424 15.9496 118.19C13.4283 114.627 11.6744 110.133 11.6744 105.09C11.6744 100.103 13.4283 97.5266 15.8948 96.8141C18.1968 96.1564 20.8824 97.1429 22.746 98.2391L31.5703 103.336C32.8309 104.049 33.8175 104.378 34.4204 104.159C34.9137 103.994 35.7906 103.282 35.7906 99.6094C35.7906 97.1977 35.0233 95.6631 34.256 94.5669C33.379 93.3611 32.228 92.3745 31.5155 91.9908Z" fill="white"/>
<path d="M16.3332 80.2615C16.3332 86.5098 12.661 89.4147 8.16662 86.8386C3.67224 84.2626 0 77.0825 0 70.8343C0 64.586 3.67224 61.6811 8.16662 64.2571C12.661 66.888 16.3332 74.068 16.3332 80.2615Z" fill="#F2C94C"/>
<path d="M59.6328 140.552C59.6328 146.8 55.9606 149.705 51.4662 147.129C46.9718 144.553 43.2996 137.373 43.2996 131.125C43.2996 124.876 46.9718 121.971 51.4662 124.548C55.9606 127.178 59.6328 134.358 59.6328 140.552Z" fill="#F2C94C"/>
<path opacity="0.2" d="M117.895 331.125C121.184 333.043 123.815 337.592 123.815 341.429V358.146L134.886 364.504C138.175 366.422 140.806 370.971 140.806 374.808C140.806 378.59 138.12 380.124 134.886 378.261L123.815 371.903V388.62C123.815 392.402 121.129 393.936 117.895 392.073C114.607 390.155 111.976 385.605 111.976 381.769V365.052L100.905 358.694C97.616 356.776 94.9851 352.226 94.9851 348.39C94.9851 344.608 97.6708 343.073 100.905 344.937L111.976 351.295V334.578C111.976 330.741 114.607 329.206 117.895 331.125Z" fill="url(#paint9_linear_212_92)"/>
<defs>
<linearGradient id="paint0_linear_212_92" x1="434.428" y1="40.0963" x2="299.251" y2="274.378" gradientUnits="userSpaceOnUse">
<stop stop-color="white"/>
<stop offset="1" stop-color="white" stop-opacity="0"/>
</linearGradient>
<linearGradient id="paint1_linear_212_92" x1="369.431" y1="1.58068" x2="234.254" y2="235.863" gradientUnits="userSpaceOnUse">
<stop stop-color="white"/>
<stop offset="1" stop-color="white" stop-opacity="0"/>
</linearGradient>
<linearGradient id="paint2_linear_212_92" x1="412.504" y1="56.5391" x2="277.327" y2="290.821" gradientUnits="userSpaceOnUse">
<stop stop-color="white"/>
<stop offset="1" stop-color="white" stop-opacity="0"/>
</linearGradient>
<linearGradient id="paint3_linear_212_92" x1="347.507" y1="18.0234" x2="212.33" y2="252.306" gradientUnits="userSpaceOnUse">
<stop stop-color="white"/>
<stop offset="1" stop-color="white" stop-opacity="0"/>
</linearGradient>
<linearGradient id="paint4_linear_212_92" x1="174.953" y1="61.7651" x2="85.4659" y2="216.801" gradientUnits="userSpaceOnUse">
<stop stop-color="white"/>
<stop offset="1" stop-color="white" stop-opacity="0"/>
</linearGradient>
<linearGradient id="paint5_linear_212_92" x1="111.722" y1="7.1652" x2="140.23" y2="87.9969" gradientUnits="userSpaceOnUse">
<stop stop-color="white"/>
<stop offset="1" stop-color="white" stop-opacity="0"/>
</linearGradient>
<linearGradient id="paint6_linear_212_92" x1="290.048" y1="269.781" x2="200.562" y2="424.817" gradientUnits="userSpaceOnUse">
<stop stop-color="white"/>
<stop offset="1" stop-color="white" stop-opacity="0"/>
</linearGradient>
<linearGradient id="paint7_linear_212_92" x1="226.818" y1="215.181" x2="255.326" y2="296.013" gradientUnits="userSpaceOnUse">
<stop stop-color="white"/>
<stop offset="1" stop-color="white" stop-opacity="0"/>
</linearGradient>
<linearGradient id="paint8_linear_212_92" x1="142.906" y1="211.767" x2="58.6907" y2="277.705" gradientUnits="userSpaceOnUse">
<stop stop-color="white"/>
<stop offset="1" stop-color="white" stop-opacity="0"/>
</linearGradient>
<linearGradient id="paint9_linear_212_92" x1="129.328" y1="352.48" x2="100.623" y2="375.119" gradientUnits="userSpaceOnUse">
<stop stop-color="white"/>
<stop offset="1" stop-color="white" stop-opacity="0"/>
</linearGradient>
</defs>
</svg>
