<svg width="25" height="35" viewBox="0 0 25 35" fill="none" xmlns="http://www.w3.org/2000/svg">
<path d="M0.25 7V15.75C0.25 16.2141 0.434375 16.6592 0.762563 16.9874C1.09075 17.3156 1.53587 17.5 2 17.5H7.25V31.5H3.75C3.28587 31.5 2.84075 31.6844 2.51256 32.0126C2.18437 32.3408 2 32.7859 2 33.25C2 33.7141 2.18437 34.1592 2.51256 34.4874C2.84075 34.8156 3.28587 35 3.75 35H14.25C14.7141 35 15.1592 34.8156 15.4874 34.4874C15.8156 34.1592 16 33.7141 16 33.25C16 32.7859 15.8156 32.3408 15.4874 32.0126C15.1592 31.6844 14.7141 31.5 14.25 31.5H10.75V17.5H19.5C19.7614 17.5009 20.0198 17.4432 20.256 17.3311C20.4922 17.2191 20.7003 17.0555 20.865 16.8525L24.365 12.4775C24.6135 12.1671 24.7489 11.7814 24.7489 11.3837C24.7489 10.9861 24.6135 10.6004 24.365 10.29L20.865 5.915C20.702 5.70876 20.4947 5.54187 20.2584 5.42675C20.0221 5.31162 19.7629 5.25121 19.5 5.25H10.75V1.75C10.75 1.28587 10.5656 0.840752 10.2374 0.512563C9.90925 0.184374 9.46413 0 9 0C8.53587 0 8.09075 0.184374 7.76256 0.512563C7.43437 0.840752 7.25 1.28587 7.25 1.75V5.25H2C1.53587 5.25 1.09075 5.43437 0.762563 5.76256C0.434375 6.09075 0.25 6.53587 0.25 7ZM3.75 8.75H18.66L20.76 11.375L18.66 14H3.75V8.75Z" fill="#003ECB"/>
</svg>
