<svg width="29" height="29" viewBox="0 0 29 29" fill="none" xmlns="http://www.w3.org/2000/svg">
<path d="M14.6291 0.996582C6.91096 0.996582 0.652832 7.25471 0.652832 14.9729C0.652832 22.691 6.91096 28.9491 14.6291 28.9491C22.3472 28.9491 28.6054 22.691 28.6054 14.9729C28.6054 7.25471 22.3472 0.996582 14.6291 0.996582ZM20.1354 19.2687L19.2431 20.4854C19.2237 20.5119 19.1993 20.5343 19.1712 20.5513C19.1431 20.5683 19.1119 20.5796 19.0795 20.5845C19.047 20.5894 19.0139 20.5879 18.982 20.58C18.9501 20.5721 18.9201 20.5579 18.8937 20.5384L13.7337 16.776C13.7016 16.753 13.6755 16.7225 13.6576 16.6872C13.6396 16.6519 13.6305 16.6128 13.6308 16.5733V7.98472C13.6308 7.84745 13.7431 7.73514 13.8804 7.73514H15.381C15.5182 7.73514 15.6305 7.84745 15.6305 7.98472V15.706L20.0792 18.9224C20.1915 19.0004 20.2165 19.1564 20.1354 19.2687Z" fill="white"/>
</svg>
